<svg xmlns="http://www.w3.org/2000/svg" width="57" height="57" viewBox="0 0 57 57">
  <g id="Group_112" data-name="Group 112" transform="translate(-209.607 -553.034)">
    <g id="Group_165" data-name="Group 165" transform="translate(211.607 555.034)">
      <g id="Group_19" data-name="Group 19" transform="translate(0)">
        <g id="Group_18" data-name="Group 18" transform="translate(2 0.5)">
          <path id="Path_67" data-name="Path 67" d="M262.406,570.055c0,14.5-6.686,26.25-14.935,26.25s-14.933-11.754-14.933-26.25,6.686-26.25,14.933-26.25S262.406,555.557,262.406,570.055Z" transform="translate(-223.545 -543.804)" fill="none" stroke="#f49513" stroke-linecap="round" stroke-linejoin="round" stroke-width="4"/>
          <line id="Line_10" data-name="Line 10" x2="47.35" transform="translate(1 36.749)" fill="none" stroke="#f49513" stroke-linecap="round" stroke-linejoin="round" stroke-width="4"/>
          <line id="Line_11" data-name="Line 11" x2="48.35" transform="translate(0 15.75)" fill="none" stroke="#f49513" stroke-linecap="round" stroke-linejoin="round" stroke-width="4"/>
          <line id="Line_12" data-name="Line 12" y2="52.5" transform="translate(23.909)" fill="none" stroke="#f49513" stroke-linecap="round" stroke-linejoin="round" stroke-width="4"/>
        </g>
        <path id="Path_243" data-name="Path 243" d="M279.72,570.056a28.129,28.129,0,0,1-.163,2.944,25.81,25.81,0,0,1-2.057,7.554,26.581,26.581,0,0,1-48.57,0,25.827,25.827,0,0,1-2.21-10.5,26.355,26.355,0,0,1,25.268-26.22c.051,0,.091-.011.142-.011.246-.008.489-.008.743-.008h.072a2.393,2.393,0,0,1,.275-.01,26.434,26.434,0,0,1,13.917,3.923c0-.01.011,0,.011,0a26.2,26.2,0,0,1,12.236,18.151c.112.707.2,1.424.254,2.149C279.688,568.693,279.72,569.37,279.72,570.056Z" transform="translate(-226.72 -543.806)" fill="none" stroke="#f49513" stroke-linecap="round" stroke-linejoin="round" stroke-width="4"/>
      </g>
    </g>
  </g>
</svg>
